<svg width="28" height="28" viewBox="0 0 28 28" fill="none" xmlns="http://www.w3.org/2000/svg">
<path d="M24.0249 24.0686L19.2112 20.9571C19.0652 20.8629 18.8951 20.8127 18.7213 20.8125L5.23747 20.7475C4.55083 20.7496 3.89111 20.4806 3.40186 19.9988C2.91261 19.517 2.63341 18.8615 2.625 18.1749V6.36412C2.63282 5.67521 2.91358 5.01752 3.40569 4.53535C3.8978 4.05317 4.56107 3.78588 5.25 3.7921H22.75C23.4389 3.78597 24.1021 4.05329 24.5942 4.53545C25.0863 5.01761 25.3671 5.67523 25.375 6.36412V23.3338C25.3753 23.5637 25.2816 23.7902 25.119 23.9528C24.8373 24.2345 24.3595 24.2849 24.0249 24.0686ZM5.25 5.5421C5.02508 5.53551 4.80672 5.61832 4.64272 5.77239C4.47873 5.92646 4.38246 6.13923 4.375 6.36412V18.1749C4.38262 18.399 4.47828 18.611 4.64124 18.765C4.80419 18.919 5.02129 19.0025 5.24544 18.9975L18.7293 19.0624C19.2379 19.0638 19.7354 19.2113 20.1626 19.4874L23.625 21.7262V6.36412C23.6174 6.13926 23.5211 5.92654 23.3572 5.7725C23.1932 5.61845 22.9749 5.53561 22.75 5.5421H5.25Z" fill="#111111"/>
<path d="M14 13.6646C14.8054 13.6646 15.4583 13.0314 15.4583 12.2504C15.4583 11.4694 14.8054 10.8363 14 10.8363C13.1946 10.8363 12.5417 11.4694 12.5417 12.2504C12.5417 13.0314 13.1946 13.6646 14 13.6646Z" fill="#111111"/>
<path d="M9.33333 13.6646C10.1387 13.6646 10.7917 13.0314 10.7917 12.2504C10.7917 11.4694 10.1387 10.8363 9.33333 10.8363C8.52792 10.8363 7.875 11.4694 7.875 12.2504C7.875 13.0314 8.52792 13.6646 9.33333 13.6646Z" fill="#111111"/>
<path d="M18.6667 13.6646C19.4721 13.6646 20.125 13.0314 20.125 12.2504C20.125 11.4694 19.4721 10.8363 18.6667 10.8363C17.8612 10.8363 17.2083 11.4694 17.2083 12.2504C17.2083 13.0314 17.8612 13.6646 18.6667 13.6646Z" fill="#111111"/>
</svg>
